<svg
  class="seperator"
  preserveAspectRatio="none"
  xmlns="http://www.w3.org/2000/svg"
  viewBox="0 0 1440 320"
>
  <path
    d="M0,96L6.2,90.7C12.3,85,25,75,37,106.7C49.2,139,62,213,74,202.7C86.2,192,98,96,111,64C123.1,32,135,64,148,101.3C160,139,172,181,185,192C196.9,203,209,181,222,160C233.8,139,246,117,258,112C270.8,107,283,117,295,149.3C307.7,181,320,235,332,256C344.6,277,357,267,369,261.3C381.5,256,394,256,406,224C418.5,192,431,128,443,128C455.4,128,468,192,480,202.7C492.3,213,505,171,517,154.7C529.2,139,542,149,554,133.3C566.2,117,578,75,591,90.7C603.1,107,615,181,628,229.3C640,277,652,299,665,266.7C676.9,235,689,149,702,149.3C713.8,149,726,235,738,234.7C750.8,235,763,149,775,112C787.7,75,800,85,812,74.7C824.6,64,837,32,849,53.3C861.5,75,874,149,886,165.3C898.5,181,911,139,923,128C935.4,117,948,139,960,149.3C972.3,160,985,160,997,149.3C1009.2,139,1022,117,1034,117.3C1046.2,117,1058,139,1071,170.7C1083.1,203,1095,245,1108,218.7C1120,192,1132,96,1145,69.3C1156.9,43,1169,85,1182,122.7C1193.8,160,1206,192,1218,181.3C1230.8,171,1243,117,1255,101.3C1267.7,85,1280,107,1292,122.7C1304.6,139,1317,149,1329,144C1341.5,139,1354,117,1366,112C1378.5,107,1391,117,1403,138.7C1415.4,160,1428,192,1434,208L1440,224L1440,0L1433.8,0C1427.7,0,1415,0,1403,0C1390.8,0,1378,0,1366,0C1353.8,0,1342,0,1329,0C1316.9,0,1305,0,1292,0C1280,0,1268,0,1255,0C1243.1,0,1231,0,1218,0C1206.2,0,1194,0,1182,0C1169.2,0,1157,0,1145,0C1132.3,0,1120,0,1108,0C1095.4,0,1083,0,1071,0C1058.5,0,1046,0,1034,0C1021.5,0,1009,0,997,0C984.6,0,972,0,960,0C947.7,0,935,0,923,0C910.8,0,898,0,886,0C873.8,0,862,0,849,0C836.9,0,825,0,812,0C800,0,788,0,775,0C763.1,0,751,0,738,0C726.2,0,714,0,702,0C689.2,0,677,0,665,0C652.3,0,640,0,628,0C615.4,0,603,0,591,0C578.5,0,566,0,554,0C541.5,0,529,0,517,0C504.6,0,492,0,480,0C467.7,0,455,0,443,0C430.8,0,418,0,406,0C393.8,0,382,0,369,0C356.9,0,345,0,332,0C320,0,308,0,295,0C283.1,0,271,0,258,0C246.2,0,234,0,222,0C209.2,0,197,0,185,0C172.3,0,160,0,148,0C135.4,0,123,0,111,0C98.5,0,86,0,74,0C61.5,0,49,0,37,0C24.6,0,12,0,6,0L0,0Z">
  </path>
</svg>