<svg id="visual" viewBox="0 0 960 300" width="960" height="300" xmlns="http://www.w3.org/2000/svg" xmlns:xlink="http://www.w3.org/1999/xlink" version="1.1"><path d="M0 4L42 52L83 55L125 67L167 58L209 61L250 85L292 67L334 13L376 19L417 46L459 4L501 97L543 34L584 46L626 55L668 70L710 73L751 55L793 37L835 13L877 64L918 43L960 112L960 0L918 0L877 0L835 0L793 0L751 0L710 0L668 0L626 0L584 0L543 0L501 0L459 0L417 0L376 0L334 0L292 0L250 0L209 0L167 0L125 0L83 0L42 0L0 0Z" fill="#dc2626"></path><path d="M0 16L42 79L83 73L125 118L167 85L209 64L250 91L292 76L334 58L376 49L417 73L459 52L501 100L543 82L584 46L626 76L668 103L710 121L751 73L793 64L835 19L877 82L918 82L960 130L960 110L918 41L877 62L835 11L793 35L751 53L710 71L668 68L626 53L584 44L543 32L501 95L459 2L417 44L376 17L334 11L292 65L250 83L209 59L167 56L125 65L83 53L42 50L0 2Z" fill="#db3f1d"></path><path d="M0 79L42 85L83 169L125 127L167 136L209 199L250 178L292 193L334 112L376 91L417 97L459 124L501 157L543 112L584 55L626 142L668 145L710 184L751 169L793 169L835 22L877 181L918 124L960 226L960 128L918 80L877 80L835 17L793 62L751 71L710 119L668 101L626 74L584 44L543 80L501 98L459 50L417 71L376 47L334 56L292 74L250 89L209 62L167 83L125 116L83 71L42 77L0 14Z" fill="#d95213"></path><path d="M0 115L42 130L83 181L125 139L167 169L209 226L250 190L292 214L334 157L376 133L417 103L459 133L501 202L543 157L584 79L626 175L668 160L710 190L751 187L793 196L835 49L877 226L918 169L960 232L960 224L918 122L877 179L835 20L793 167L751 167L710 182L668 143L626 140L584 53L543 110L501 155L459 122L417 95L376 89L334 110L292 191L250 176L209 197L167 134L125 125L83 167L42 83L0 77Z" fill="#d66208"></path><path d="M0 151L42 178L83 226L125 190L167 199L209 277L250 241L292 217L334 172L376 154L417 127L459 181L501 232L543 199L584 145L626 223L668 193L710 223L751 223L793 229L835 82L877 226L918 208L960 259L960 230L918 167L877 224L835 47L793 194L751 185L710 188L668 158L626 173L584 77L543 155L501 200L459 131L417 101L376 131L334 155L292 212L250 188L209 224L167 167L125 137L83 179L42 128L0 113Z" fill="#d37000"></path><path d="M0 187L42 217L83 289L125 220L167 262L209 292L250 283L292 235L334 214L376 175L417 202L459 187L501 238L543 217L584 205L626 256L668 196L710 238L751 235L793 289L835 142L877 289L918 250L960 271L960 257L918 206L877 224L835 80L793 227L751 221L710 221L668 191L626 221L584 143L543 197L501 230L459 179L417 125L376 152L334 170L292 215L250 239L209 275L167 197L125 188L83 224L42 176L0 149Z" fill="#cf7e00"></path><path d="M0 301L42 301L83 301L125 301L167 301L209 301L250 301L292 301L334 301L376 301L417 301L459 301L501 301L543 301L584 301L626 301L668 301L710 301L751 301L793 301L835 301L877 301L918 301L960 301L960 269L918 248L877 287L835 140L793 287L751 233L710 236L668 194L626 254L584 203L543 215L501 236L459 185L417 200L376 173L334 212L292 233L250 281L209 290L167 260L125 218L83 287L42 215L0 185Z" fill="#ca8a04"></path></svg>