<svg id="light" xmlns="http://www.w3.org/2000/svg" width="1em" height="1em" viewBox="0 0 30 30"
  fill="currentColor">
  <path id="clear_day_FILL0_wght400_GRAD0_opsz24_1_"
    data-name="clear_day_FILL0_wght400_GRAD0_opsz24 (1)"
    d="M53.636-914.545V-920h2.727v5.455ZM62.7-910.8,60.83-912.67l3.818-3.92,1.909,1.943Zm1.841,7.159v-2.727H70v2.727ZM53.636-890v-5.455h2.727V-890ZM47.3-910.864l-3.886-3.784,1.943-1.909L49.2-912.7Zm17.318,17.455-3.784-3.92,1.841-1.841,3.886,3.75ZM40-903.636v-2.727h5.455v2.727Zm5.352,10.227-1.909-1.943,3.818-3.818.989.92.989.955ZM55-896.818a7.89,7.89,0,0,1-5.8-2.386,7.89,7.89,0,0,1-2.386-5.8,7.89,7.89,0,0,1,2.386-5.8,7.89,7.89,0,0,1,5.8-2.386,7.89,7.89,0,0,1,5.8,2.386,7.89,7.89,0,0,1,2.386,5.8,7.89,7.89,0,0,1-2.386,5.8A7.89,7.89,0,0,1,55-896.818Zm0-2.727a5.252,5.252,0,0,0,3.852-1.6,5.252,5.252,0,0,0,1.6-3.852,5.252,5.252,0,0,0-1.6-3.852,5.252,5.252,0,0,0-3.852-1.6,5.252,5.252,0,0,0-3.852,1.6,5.252,5.252,0,0,0-1.6,3.852,5.252,5.252,0,0,0,1.6,3.852A5.252,5.252,0,0,0,55-899.545ZM55-905Z"
    transform="translate(-40 920)" />
</svg>