<?xml version="1.0" encoding="utf-8"?>
<svg viewBox="0 0 500 500" width="1em" height="1em" xmlns="http://www.w3.org/2000/svg">
  <g class="page-1" transform="matrix(0.976563, 0, 0, -0.976563, -0.000138, 430.202057)">
    <g transform="">
      <path
        d="M 256 -20 C 217 -20 177 -5 147 25 L 45 127 C -15 187 -15 284 45 344 C 103 402 196 404 256 350 C 316 404 409 402 467 344 C 527 284 527 187 467 127 L 365 25 C 335 -5 295 -20 256 -20 Z M 322 282 C 304 282 290 268 290 250 C 290 232 304 218 322 218 C 339 218 354 232 354 250 C 354 268 339 282 322 282 Z M 190 282 C 173 282 158 268 158 250 C 158 232 173 218 190 218 C 208 218 222 232 222 250 C 222 268 208 282 190 282 Z M 197 183 C 190 190 178 189 172 182 C 165 175 165 163 172 157 C 172 157 172 158 172 157 C 172 157 180 145 186 139 C 193 133 200 128 208 124 C 222 116 240 112 256 112 C 272 112 290 116 304 124 C 319 132 333 145 343 160 C 348 169 345 180 337 185 C 328 190 317 188 312 179 C 306 168 298 161 287 155 C 277 150 268 148 256 148 C 244 148 235 150 225 155 C 219 158 215 161 211 165 C 207 169 197 183 197 183 C 198 182 197 183 197 183 Z M 197 183"
        stroke-width="1"
        fill="currentColor" />
    </g>
  </g>
</svg>