<?xml version="1.0" standalone="no"?>
<!DOCTYPE svg PUBLIC "-//W3C//DTD SVG 20010904//EN"
 "http://www.w3.org/TR/2001/REC-SVG-20010904/DTD/svg10.dtd">
<svg version="1.0" xmlns="http://www.w3.org/2000/svg"
 width="700.000000pt" height="700.000000pt" viewBox="0 0 700.000000 700.000000"
 preserveAspectRatio="xMidYMid meet">
<metadata>
Created by potrace 1.14, written by Peter Selinger 2001-2017
</metadata>
<g transform="translate(0.000000,700.000000) scale(0.100000,-0.100000)"
fill="#000000" stroke="none">
<path d="M3880 6982 c0 -4 9 -24 20 -44 38 -71 109 -247 140 -345 89 -289 101
-565 34 -803 -33 -114 -113 -258 -193 -343 -38 -41 -144 -127 -157 -127 -4 0
-15 -6 -23 -14 -23 -21 -167 -72 -226 -81 -83 -12 -155 -12 -245 1 -384 56
-673 368 -744 803 -17 98 -14 353 3 441 24 115 24 112 2 100 -42 -22 -205
-187 -266 -269 -56 -74 -134 -214 -179 -321 -15 -35 -54 -171 -62 -213 -2 -12
-9 -53 -17 -92 -16 -84 -20 -346 -7 -430 5 -33 11 -78 15 -100 11 -77 35 -167
80 -299 24 -73 52 -166 61 -207 18 -86 21 -261 4 -334 -55 -243 -208 -398
-452 -460 -216 -54 -414 -8 -551 128 -54 55 -137 176 -137 201 0 8 -4 17 -9
20 -13 9 -58 161 -77 261 -30 164 -23 482 17 685 6 30 13 69 15 85 3 17 16 72
29 124 13 51 20 90 15 85 -5 -5 -31 -38 -59 -74 -28 -36 -54 -69 -59 -75 -63
-78 -200 -294 -275 -435 -86 -163 -217 -476 -231 -555 -3 -13 -7 -28 -10 -33
-13 -21 -79 -297 -91 -382 -4 -24 -8 -47 -10 -50 -2 -3 -6 -34 -10 -70 -4 -36
-9 -74 -11 -84 -23 -120 -22 -553 1 -746 3 -19 7 -55 10 -80 3 -25 13 -83 21
-130 135 -738 504 -1391 1074 -1900 244 -218 606 -444 922 -574 179 -73 451
-155 618 -185 36 -7 72 -13 80 -15 8 -1 38 -6 65 -10 28 -4 61 -9 74 -11 151
-24 646 -31 751 -11 14 3 50 7 80 11 81 8 274 42 365 64 990 240 1819 929
2242 1866 106 233 204 554 238 775 3 19 7 46 10 60 23 123 39 339 39 520 -1
129 -10 323 -19 369 -1 9 -6 41 -10 71 -7 60 -12 92 -20 130 -2 13 -7 41 -10
62 -14 89 -131 506 -140 496 -2 -2 -6 -29 -9 -60 -38 -387 -167 -760 -342
-988 -123 -161 -263 -265 -424 -315 -75 -23 -228 -27 -312 -9 -188 40 -311
128 -377 269 -86 184 -88 421 -6 855 27 142 42 219 50 255 2 11 7 43 11 70 3
28 8 52 9 56 19 30 28 573 12 717 -12 118 -53 302 -92 419 -129 385 -387 711
-800 1009 -130 94 -445 282 -445 266z"/>
</g>
</svg>
