<svg
  id="dark"
  xmlns="http://www.w3.org/2000/svg"
  width="1em"
  height="1em"
  viewBox="0 0 30 30"
  fill="currentColor"
>
  <path
    id="clear_night_FILL0_wght400_GRAD0_opsz24"
    d="M135.15-810a14.634,14.634,0,0,1-5.906-1.2,15.419,15.419,0,0,1-4.8-3.244,15.419,15.419,0,0,1-3.244-4.8,14.634,14.634,0,0,1-1.2-5.906,14.634,14.634,0,0,1,3.488-9.656A14.779,14.779,0,0,1,132.375-840a15.149,15.149,0,0,0,.413,7.256,14.8,14.8,0,0,0,3.75,6.206,14.8,14.8,0,0,0,6.206,3.75,15.149,15.149,0,0,0,7.256.412,14.573,14.573,0,0,1-5.175,8.888A14.706,14.706,0,0,1,135.15-810Zm0-3a11.867,11.867,0,0,0,6.113-1.65,11.871,11.871,0,0,0,4.425-4.537,18.605,18.605,0,0,1-6.113-1.631,17.824,17.824,0,0,1-5.175-3.619,18.13,18.13,0,0,1-3.637-5.175,17.706,17.706,0,0,1-1.613-6.112,11.7,11.7,0,0,0-4.519,4.444A12.072,12.072,0,0,0,123-825.15a11.717,11.717,0,0,0,3.544,8.606A11.717,11.717,0,0,0,135.15-813ZM134.4-824.437Z"
    transform="translate(-120 840)"
  />
</svg>
